<?xml version="1.0" standalone="no"?>
<!DOCTYPE svg PUBLIC "-//W3C//DTD SVG 20010904//EN"
 "http://www.w3.org/TR/2001/REC-SVG-20010904/DTD/svg10.dtd">
<svg version="1.0" xmlns="http://www.w3.org/2000/svg"
 width="920.000000pt" height="920.000000pt" viewBox="0 0 920.000000 920.000000"
 preserveAspectRatio="xMidYMid meet">
<metadata>
Created by potrace 1.14, written by Peter Selinger 2001-2017
</metadata>
<g transform="translate(0.000000,920.000000) scale(0.100000,-0.100000)"
fill="#000000" stroke="none">
<path d="M6014 7425 l-94 -194 0 -391 0 -390 163 0 164 0 129 153 c71 83 177
208 236 276 l108 123 0 309 0 309 -306 0 -306 0 -94 -195z m580 -403 c3 -5 -1
-9 -9 -9 -8 0 -12 4 -9 9 3 4 7 8 9 8 2 0 6 -4 9 -8z m106 -9 c0 -2 -20 -3
-44 -2 -25 2 -43 5 -41 9 4 6 85 0 85 -7z m-615 -122 c-9 -8 -36 -10 -30 -2 2
4 11 8 20 8 8 0 13 -3 10 -6z m122 -8 c0 -8 -5 -9 -11 -4 -6 4 -24 7 -39 6
-15 -1 -29 1 -32 4 -2 4 16 7 39 7 28 0 43 -5 43 -13z m58 5 c5 4 5 1 1 -6 -6
-9 -11 -10 -20 -3 -7 6 -17 7 -21 3 -5 -4 -5 -1 -1 6 6 9 11 10 20 3 7 -6 17
-7 21 -3z m33 -23 c-3 -3 -9 2 -12 12 -6 14 -5 15 5 6 7 -7 10 -15 7 -18z
m100 -27 c4 2 8 -2 10 -10 2 -9 0 -8 -7 2 -6 8 -11 11 -11 6 0 -5 -6 -3 -13 3
-8 6 -16 9 -19 6 -2 -3 -5 2 -5 10 0 13 4 12 20 -2 10 -10 22 -17 25 -15z m41
-11 c8 -10 7 -14 -2 -14 -8 0 -14 6 -14 14 0 7 1 13 2 13 2 0 8 -6 14 -13z"/>
<path d="M2619 7278 c0 -24 -1 -147 -3 -273 l-2 -231 93 -99 94 -100 -3 217
c-3 210 -3 217 17 220 11 2 134 3 273 1 138 -1 252 -1 252 1 0 2 -37 70 -83
152 l-83 149 -277 3 -277 2 -1 -42z m73 19 c10 9 18 14 18 11 0 -3 -8 -12 -18
-22 -18 -15 -20 -15 -38 6 -18 23 -18 23 1 6 17 -16 20 -16 37 -1z m136 -14
c-18 -22 -17 -54 0 -75 8 -10 11 -18 7 -18 -5 0 7 -17 26 -37 18 -21 23 -28 9
-16 -25 22 -27 22 -45 5 -19 -17 -19 -16 -2 4 9 11 14 24 10 28 -5 4 -8 13 -8
19 -1 7 -6 11 -12 10 -6 -1 -9 10 -8 27 1 16 -4 35 -11 41 -8 6 -14 17 -14 23
0 6 5 3 11 -7 8 -14 14 -16 25 -6 7 6 11 16 7 22 -3 6 -1 7 6 3 9 -6 9 -11 -1
-23z m39 20 c-4 -3 0 -15 9 -25 13 -13 20 -15 30 -7 8 6 12 15 9 19 -3 5 0 12
7 16 7 4 10 4 6 -1 -4 -4 -2 -15 5 -23 7 -10 8 -13 1 -9 -7 4 -17 0 -24 -8
-12 -14 -16 -13 -36 6 -21 19 -24 39 -7 39 4 0 3 -3 0 -7z m30 -8 c0 -8 -4
-12 -9 -9 -5 3 -6 10 -3 15 9 13 12 11 12 -6z m-132 -4 c-3 -2 2 -12 10 -21
13 -14 13 -17 0 -17 -8 0 -12 4 -10 8 4 5 -22 34 -31 34 -1 0 -14 -11 -28 -24
-24 -23 -25 -26 -9 -43 9 -10 14 -18 12 -18 -3 0 -23 19 -44 42 -22 24 -28 33
-14 20 l25 -22 22 23 c12 13 33 23 47 23 13 0 22 -2 20 -5z m206 -4 c-8 -11
-7 -18 7 -31 10 -9 22 -13 25 -9 4 3 7 4 7 1 0 -3 -8 -12 -17 -19 -9 -8 -14
-9 -10 -3 4 6 -2 19 -13 29 -15 14 -17 21 -9 32 6 7 14 13 16 13 3 0 0 -6 -6
-13z m-84 -62 c0 -7 -5 -13 -11 -12 -19 4 -12 -28 13 -55 18 -21 28 -25 38
-17 7 6 11 15 8 19 -3 4 3 14 13 21 15 13 16 12 3 -3 -7 -10 -10 -18 -5 -18 4
0 -2 -10 -14 -23 -16 -17 -19 -26 -11 -34 8 -8 7 -13 -3 -18 -7 -5 -10 -5 -6
0 4 4 3 14 -3 22 -6 7 -8 13 -3 13 4 0 -7 16 -26 35 -19 19 -30 35 -26 35 5 0
2 7 -5 16 -14 17 -21 45 -11 41 4 -1 7 3 7 8 0 6 -4 9 -8 7 -5 -1 -5 2 -2 9 9
13 52 -25 52 -46z m-165 33 c-9 -9 -9 -15 1 -27 11 -14 10 -14 -6 -2 -13 10
-15 17 -6 27 6 8 14 14 17 14 3 0 1 -5 -6 -12z m26 -5 c0 -10 3 -28 5 -40 3
-13 1 -25 -4 -29 -6 -4 -2 -16 12 -30 12 -13 26 -21 31 -18 5 3 7 0 6 -8 -2
-7 2 -12 8 -11 5 1 10 -9 10 -22 0 -24 -3 -30 -6 -10 0 6 -22 32 -48 58 -26
27 -40 47 -32 45 15 -3 20 18 10 42 -4 8 -5 21 -3 28 7 17 12 15 11 -5z m-84
-22 c21 -22 25 -31 14 -37 -7 -4 -10 -3 -5 1 4 5 -5 21 -20 37 -15 15 -24 28
-22 28 3 0 18 -13 33 -29z m266 25 c0 -2 -8 -10 -17 -17 -16 -13 -17 -12 -4 4
13 16 21 21 21 13z m35 -24 c-3 -3 0 -10 5 -17 7 -8 5 -12 -4 -12 -8 0 -13 7
-11 16 1 9 -3 23 -9 31 -10 13 -9 13 7 1 9 -8 15 -16 12 -19z m-179 -18 c-1
-13 -5 -26 -9 -30 -4 -4 -1 -14 6 -23 11 -14 10 -14 -5 -2 -10 7 -15 18 -11
25 10 15 11 29 1 42 -4 6 -2 11 6 11 7 0 12 -10 12 -23z m150 2 c-1 -13 -7
-30 -14 -38 -6 -8 -8 -19 -4 -24 4 -5 -3 0 -15 10 -13 11 -23 24 -23 29 0 6 6
3 13 -8 12 -15 15 -16 23 -4 5 8 9 22 10 32 3 36 12 39 10 3z m81 7 c-4 -3 -2
-12 4 -20 6 -7 8 -13 4 -13 -4 0 -2 -7 5 -15 7 -8 16 -13 20 -10 5 3 12 0 16
-6 4 -8 3 -9 -4 -5 -16 10 -29 -23 -27 -67 1 -38 -17 -68 -30 -47 -4 6 -1 9 6
8 8 -2 13 12 14 42 1 25 4 52 6 60 2 8 -1 14 -7 13 -6 -1 -11 8 -10 20 1 14
-4 21 -13 19 -12 -3 -12 0 -1 12 7 9 15 16 18 16 3 0 2 -3 -1 -7z m-311 -30
c-3 -4 15 -28 41 -55 26 -26 43 -48 39 -48 -5 0 -1 -10 10 -22 l19 -23 -22 19
c-12 10 -21 23 -20 30 1 6 -4 10 -10 9 -7 -2 -12 3 -10 10 1 6 -4 11 -10 10
-7 -2 -12 3 -10 10 1 6 -4 11 -11 9 -8 -1 -11 2 -8 7 3 5 -1 14 -9 21 -14 11
-12 30 2 30 4 0 3 -3 -1 -7z m291 -20 c0 -9 -4 -10 -14 -2 -7 6 -13 12 -13 14
0 1 6 2 13 2 8 0 14 -6 14 -14z m-36 -37 c-12 -12 -18 -26 -14 -31 5 -4 2 -5
-5 -1 -11 6 -9 13 7 30 12 12 18 26 14 31 -5 4 -2 5 5 1 11 -6 9 -13 -7 -30z
m27 -3 c-16 -20 -18 -50 -3 -73 7 -12 6 -13 -7 -3 -18 15 -18 54 1 77 7 9 16
16 19 16 3 0 -2 -8 -10 -17z m-133 -33 c-8 -9 -13 -19 -10 -22 3 -3 -3 -11
-12 -19 -16 -12 -17 -12 -7 1 6 8 10 23 9 32 -2 10 0 16 3 15 4 -1 7 3 7 8 0
6 -4 9 -8 7 -5 -1 -6 2 -2 8 5 8 11 7 21 -1 13 -10 12 -14 -1 -29z m231 19 c1
-5 3 -10 4 -11 5 -6 6 -77 1 -72 -3 3 -7 19 -7 35 -1 16 -2 30 -4 32 -5 7 -7
38 -2 32 4 -4 8 -11 8 -16z m-80 -23 c0 -19 -3 -33 -7 -31 -7 5 -4 65 4 65 1
0 3 -15 3 -34z m59 -24 c1 -26 -2 -39 -11 -39 -8 0 -10 5 -5 11 4 6 7 26 5 44
-1 19 0 31 3 28 3 -3 7 -23 8 -44z m-170 28 c4 -6 1 -9 -7 -8 -8 2 -13 -6 -12
-20 1 -12 -1 -20 -4 -17 -3 3 -15 -3 -26 -12 -15 -13 -14 -10 3 10 14 15 21
27 17 27 -5 0 -3 7 4 15 15 18 17 18 25 5z m52 -17 c-4 -3 0 -14 9 -24 12 -13
12 -19 3 -25 -7 -4 -10 -3 -6 3 8 13 -17 35 -29 25 -4 -4 -2 1 5 11 7 9 16 17
19 17 3 0 2 -3 -1 -7z m-42 -12 c3 -5 2 -12 -3 -15 -5 -3 -9 1 -9 9 0 17 3 19
12 6z m221 -16 c1 -8 -1 -17 -5 -19 -4 -3 -7 6 -7 19 0 25 8 25 12 0z m33 -8
c8 -10 7 -14 -2 -14 -8 0 -14 6 -14 14 0 7 1 13 2 13 2 0 8 -6 14 -13z"/>
<path d="M2851 7236 c-7 -8 -8 -17 -3 -20 6 -3 15 1 21 8 7 8 8 17 3 20 -6 3
-15 -1 -21 -8z"/>
<path d="M3380 7003 c-1 -136 -3 -359 -7 -494 -5 -241 -5 -248 16 -276 21 -27
25 -28 94 -27 39 1 214 3 389 3 l316 1 -19 63 c-14 44 -19 93 -19 171 0 96 -6
135 -49 315 -27 113 -63 267 -81 342 l-32 136 -296 2 c-163 1 -299 4 -304 7
-4 3 -8 -106 -8 -243z m593 -740 c-24 -2 -62 -2 -85 0 -24 2 -5 4 42 4 47 0
66 -2 43 -4z m165 0 c-16 -2 -40 -2 -55 0 -16 2 -3 4 27 4 30 0 43 -2 28 -4z"/>
<path d="M2178 6813 l-3 -198 -25 1 c-14 1 -100 2 -192 3 l-168 1 -3 168 -3
167 1 -174 0 -174 320 -233 320 -233 285 -1 285 0 -97 98 c-65 65 -98 106
-100 123 -2 20 -87 112 -310 338 l-308 312 -2 -198z"/>
<path d="M2081 6957 c-8 -10 -7 -14 2 -14 8 0 14 6 14 14 0 7 -1 13 -2 13 -2
0 -8 -6 -14 -13z"/>
<path d="M2114 6925 c0 -13 3 -22 7 -19 8 4 6 30 -2 38 -3 3 -5 -5 -5 -19z"/>
<path d="M2125 6891 c-3 -5 -2 -12 3 -15 5 -3 9 1 9 9 0 17 -3 19 -12 6z"/>
<path d="M1230 5190 c0 -199 0 -200 23 -204 12 -3 335 -46 717 -96 382 -50
810 -106 950 -125 140 -18 269 -35 285 -37 27 -3 30 0 32 29 1 27 -3 33 -25
37 -56 12 -892 156 -901 156 -6 0 -11 49 -13 127 l-3 127 -305 88 c-168 48
-317 90 -332 93 l-28 6 -3 -168 -3 -168 -2 166 -2 167 -195 1 -195 1 0 -200z"/>
<path d="M6145 4672 c-3 -3 -5 -119 -5 -259 0 -253 0 -253 23 -263 23 -10 658
-175 712 -186 l32 -6 -3 120 -2 120 31 -4 c607 -94 730 -110 812 -108 50 1
144 3 210 3 l120 1 -3 197 c-2 109 -4 198 -5 199 -6 4 -398 15 -742 20 -220 3
-406 7 -413 10 -9 3 -13 23 -11 71 0 38 1 73 0 79 -1 11 -744 17 -756 6z"/>
<path d="M3239 4483 c-1 -43 -2 -90 -3 -105 -2 -15 1 -33 5 -40 5 -7 9 39 9
105 0 64 -2 117 -5 117 -3 0 -5 -35 -6 -77z"/>
<path d="M3160 4274 c-36 -7 -285 -53 -555 -103 -269 -50 -494 -93 -500 -96
-5 -2 221 -3 503 -2 l512 2 0 -520 0 -520 115 115 c64 63 120 122 125 131 7
13 0 15 -58 15 l-67 -1 -1 493 c0 271 -3 494 -5 495 -2 2 -33 -2 -69 -9z"/>
<path d="M2395 4021 c-3 -5 -2 -12 3 -15 5 -3 9 1 9 9 0 17 -3 19 -12 6z"/>
<path d="M2546 4010 c5 -8 9 -18 9 -22 0 -3 3 -9 7 -13 3 -4 5 0 4 9 -1 9 -8
22 -16 29 -10 10 -11 9 -4 -3z"/>
<path d="M2599 4006 c4 -6 7 -23 6 -39 -1 -15 1 -25 4 -22 12 12 7 72 -6 72
-7 0 -9 -5 -4 -11z"/>
<path d="M2676 4012 c-3 -5 1 -9 9 -9 8 0 12 4 9 9 -3 4 -7 8 -9 8 -2 0 -6 -4
-9 -8z"/>
<path d="M2719 4018 c-6 -20 -6 -39 0 -42 4 -3 7 6 7 20 0 20 -4 32 -7 22z"/>
<path d="M2766 4012 c-3 -5 1 -9 9 -9 8 0 12 4 9 9 -3 4 -7 8 -9 8 -2 0 -6 -4
-9 -8z"/>
<path d="M2826 4012 c-3 -5 1 -9 9 -9 8 0 12 4 9 9 -3 4 -7 8 -9 8 -2 0 -6 -4
-9 -8z"/>
<path d="M3035 4010 c-4 -6 -1 -9 6 -8 10 2 13 -13 13 -59 0 -34 3 -60 5 -57
11 11 7 115 -5 125 -8 7 -14 6 -19 -1z"/>
<path d="M2965 4001 c-3 -5 -2 -12 3 -15 5 -3 9 1 9 9 0 17 -3 19 -12 6z"/>
<path d="M2495 3991 c-3 -5 -2 -12 3 -15 5 -3 9 1 9 9 0 17 -3 19 -12 6z"/>
<path d="M2523 3985 c0 -8 4 -12 9 -9 5 3 6 10 3 15 -9 13 -12 11 -12 -6z"/>
<path d="M2744 3975 c0 -13 3 -22 7 -19 8 4 6 30 -2 38 -3 3 -5 -5 -5 -19z"/>
<path d="M2796 3992 c-3 -5 1 -9 9 -9 8 0 12 4 9 9 -3 4 -7 8 -9 8 -2 0 -6 -4
-9 -8z"/>
<path d="M2856 3992 c-3 -5 1 -9 9 -9 8 0 12 4 9 9 -3 4 -7 8 -9 8 -2 0 -6 -4
-9 -8z"/>
<path d="M2904 3986 c1 -8 5 -18 8 -22 4 -3 5 1 4 10 -1 8 -5 18 -8 22 -4 3
-5 -1 -4 -10z"/>
<path d="M2654 3966 c1 -8 5 -18 8 -22 4 -3 5 1 4 10 -1 8 -5 18 -8 22 -4 3
-5 -1 -4 -10z"/>
<path d="M2544 3925 c0 -13 3 -22 7 -19 8 4 6 30 -2 38 -3 3 -5 -5 -5 -19z"/>
<path d="M2579 3948 c-5 -18 -6 -38 -1 -34 7 8 12 36 6 36 -2 0 -4 -1 -5 -2z"/>
<path d="M2765 3941 c-3 -5 -2 -12 3 -15 5 -3 9 1 9 9 0 17 -3 19 -12 6z"/>
<path d="M2644 3915 c0 -13 3 -22 7 -19 8 4 6 30 -2 38 -3 3 -5 -5 -5 -19z"/>
<path d="M2893 3917 c0 -8 6 -14 14 -14 9 0 10 4 2 14 -6 7 -12 13 -14 13 -1
0 -2 -6 -2 -13z"/>
<path d="M2611 3907 c-8 -10 -7 -14 2 -14 8 0 14 6 14 14 0 7 -1 13 -2 13 -2
0 -8 -6 -14 -13z"/>
<path d="M2460 3905 c0 -2 6 -8 13 -14 10 -8 14 -7 14 2 0 8 -6 14 -14 14 -7
0 -13 -1 -13 -2z"/>
<path d="M2540 3886 c0 -2 8 -10 18 -17 15 -13 16 -12 3 4 -13 16 -21 21 -21
13z"/>
<path d="M2584 3865 c0 -13 3 -22 7 -19 8 4 6 30 -2 38 -3 3 -5 -5 -5 -19z"/>
<path d="M2714 3866 c1 -14 4 -28 7 -31 3 -3 5 6 5 19 -1 14 -4 28 -7 31 -3 3
-5 -6 -5 -19z"/>
<path d="M2769 3888 c-5 -18 -6 -38 -1 -34 7 8 12 36 6 36 -2 0 -4 -1 -5 -2z"/>
<path d="M2092 3463 l-2 -423 122 0 123 0 -208 -136 -207 -136 -1 -67 c0 -36
-3 -117 -6 -180 l-5 -113 181 4 181 5 342 309 341 309 -98 3 c-55 1 -104 7
-109 11 -6 5 -150 9 -321 10 -170 1 -311 3 -312 5 -1 1 -4 157 -5 347 -1 189
-5 373 -8 409 -4 36 -7 -125 -8 -357z m168 -870 c0 -91 -3 -164 -6 -160 -4 3
-6 76 -5 161 l1 155 -117 4 -118 3 123 2 122 2 0 -167z m-303 140 c-4 -3 1
-15 10 -26 10 -11 12 -17 6 -13 -7 4 -13 3 -13 -3 0 -17 17 -21 29 -7 9 10 8
16 -4 26 -8 7 -15 17 -15 22 0 6 9 0 20 -13 10 -13 19 -19 20 -13 0 5 -5 15
-10 20 -7 7 -6 11 3 11 21 0 17 -29 -10 -60 -22 -27 -23 -55 -2 -41 5 3 7 9 4
13 -2 5 6 18 20 31 13 12 22 30 20 39 -2 10 3 18 10 18 8 0 11 -5 7 -11 -4 -6
-7 -14 -8 -18 -1 -5 -3 -9 -4 -10 -1 -2 -3 -15 -4 -31 -2 -15 -6 -30 -9 -33
-4 -4 -2 -16 4 -27 8 -13 8 -17 0 -13 -14 9 -32 -27 -21 -44 4 -7 6 -24 4 -38
-5 -23 -3 -24 13 -11 17 13 17 13 3 -5 -15 -20 -15 -23 1 -43 7 -7 6 -14 -1
-18 -6 -4 -9 -3 -8 2 2 4 -2 8 -7 8 -5 0 -9 -4 -7 -9 2 -5 -3 -4 -11 2 -8 7
-17 8 -22 4 -4 -4 -3 2 3 13 12 24 -3 59 -21 48 -7 -3 -3 3 7 15 11 12 16 22
12 22 -4 0 2 12 13 26 20 25 20 51 0 38 -5 -3 -7 -9 -4 -13 2 -5 -4 -16 -15
-26 -11 -10 -17 -21 -15 -26 3 -4 1 -10 -4 -13 -10 -7 -9 19 1 30 4 3 5 11 4
17 -2 7 -1 9 1 4 3 -4 9 -4 14 -1 6 3 5 11 -2 20 -6 8 -9 17 -5 21 3 3 6 1 6
-6 0 -7 5 -9 10 -6 8 5 7 11 -1 21 -8 10 -15 11 -24 4 -8 -7 -12 -5 -12 5 0 7
5 13 10 12 5 -1 12 4 15 12 2 8 0 11 -6 7 -6 -4 -9 4 -7 19 1 14 -2 28 -7 31
-9 5 -2 24 9 24 4 0 3 -3 0 -7z m127 -9 c4 -9 2 -13 -5 -8 -7 4 -9 0 -5 -14 4
-11 3 -23 -3 -26 -5 -3 -8 -14 -6 -24 1 -9 -2 -22 -7 -29 -5 -7 -5 -13 0 -17
10 -6 24 17 27 47 2 9 4 19 5 22 1 3 3 9 4 14 0 5 4 13 8 17 4 4 3 12 -2 19
-7 8 -5 12 4 12 16 0 15 -39 -2 -60 -9 -11 -10 -17 -2 -22 8 -5 8 -11 1 -19
-6 -7 -7 -17 -3 -21 4 -5 1 -5 -5 -1 -13 7 -18 -6 -6 -17 9 -9 34 13 27 24 -3
5 0 8 7 7 6 -2 14 3 17 11 3 8 0 11 -7 7 -7 -5 -9 -1 -4 10 5 13 3 15 -8 9
-10 -6 -9 -3 2 11 9 10 15 30 13 43 -3 14 -2 22 2 19 5 -5 7 -14 13 -48 1 -3
5 2 11 10 5 9 5 19 0 25 -6 8 -5 12 4 12 13 0 14 -12 4 -43 -1 -7 2 -12 7 -13
6 -1 10 3 10 8 0 5 3 12 7 16 4 4 4 14 1 23 -4 10 -3 14 1 11 14 -13 14 -48 0
-59 -7 -7 -11 -16 -8 -22 3 -5 1 -15 -6 -23 -7 -8 -7 -15 -1 -19 10 -6 10 -24
0 -41 -4 -5 -5 -19 -3 -30 1 -10 -1 -24 -5 -30 -4 -5 -6 -16 -5 -22 1 -7 2
-18 3 -25 2 -17 16 1 17 23 1 10 2 20 4 22 1 1 3 17 4 34 1 18 5 36 9 39 3 4
2 14 -3 23 -5 10 -5 23 1 32 8 12 10 12 8 -1 -3 -27 1 -41 9 -36 15 9 7 61 -9
58 -10 -3 -9 1 3 15 19 20 20 33 7 49 -5 7 -4 11 4 11 9 0 12 -21 12 -73 0
-40 -3 -70 -7 -68 -9 6 -18 -11 -24 -43 -4 -22 -3 -24 10 -14 8 7 12 20 9 29
-3 9 -3 14 1 11 9 -9 16 -49 8 -46 -4 1 -7 -2 -7 -8 0 -5 3 -9 6 -8 3 1 6 -4
6 -12 0 -8 -3 -13 -6 -12 -3 1 -6 -2 -6 -8 0 -5 5 -9 10 -7 6 2 4 -2 -2 -9 -8
-8 -9 -17 -3 -24 7 -8 5 -12 -4 -12 -7 0 -13 8 -12 18 1 10 -3 17 -9 16 -5 -1
-9 -5 -8 -9 2 -5 -3 -7 -10 -5 -6 1 -11 -3 -10 -9 1 -6 -5 -11 -12 -11 -10 0
-12 4 -5 12 5 7 7 15 3 18 -3 4 -7 17 -7 29 -1 13 -6 30 -11 38 -8 13 -7 13 8
1 15 -12 17 -11 14 5 -7 34 -19 54 -29 48 -5 -3 -4 -12 3 -20 10 -12 10 -15
-2 -12 -8 2 -12 -3 -10 -12 2 -8 4 -24 5 -35 1 -11 5 -26 9 -32 5 -7 3 -21 -3
-30 -9 -15 -10 -14 -4 6 5 18 3 22 -7 16 -8 -5 -11 -4 -6 0 4 5 -5 21 -20 37
-15 15 -24 28 -20 28 4 0 10 0 15 0 4 0 8 -4 8 -10 3 -20 4 -21 15 -15 7 5 5
15 -6 31 -11 17 -12 23 -3 22 7 -2 12 5 13 15 0 9 -4 17 -10 16 -5 -1 -9 -5
-7 -10 1 -5 -3 -8 -10 -6 -7 1 -12 -3 -13 -10 0 -7 -6 -18 -12 -24 -10 -10 -7
-19 15 -42 15 -16 23 -27 17 -25 -5 2 -11 -1 -12 -7 -2 -5 2 -11 7 -11 20 -3
21 -4 15 -14 -5 -8 -11 -8 -19 -1 -9 7 -16 7 -23 0 -8 -8 -14 -6 -21 7 -9 18
-9 28 -1 64 2 8 -2 14 -8 13 -7 -2 -12 0 -12 5 1 4 0 9 -1 12 -7 18 -7 39 0
35 4 -3 13 2 19 9 7 9 8 17 2 20 -10 6 -10 24 0 41 4 6 5 18 4 28 -2 10 1 14
8 10 6 -4 8 0 4 10 -6 15 0 47 8 47 2 0 6 -7 9 -16z m-119 -253 c-2 -9 -4 -18
-5 -21 -1 -3 -2 -9 -1 -13 1 -5 -3 -6 -9 -2 -8 5 -8 11 -1 19 7 8 7 16 0 23
-6 6 -5 10 5 10 7 0 12 -7 11 -16z"/>
<path d="M2010 2665 c-7 -8 -9 -15 -5 -15 4 0 2 -6 -4 -14 -9 -10 -8 -16 3
-25 12 -10 15 -9 14 6 0 10 3 28 5 41 7 26 4 27 -13 7z"/>
<path d="M1989 2558 c-1 -5 -2 -12 -3 -17 0 -5 -4 -13 -8 -16 -4 -4 -1 -17 7
-27 7 -11 11 -28 7 -37 -5 -14 -4 -14 11 -2 12 9 14 17 7 26 -5 6 -8 21 -6 32
2 11 0 26 -5 34 -5 8 -9 11 -10 7z"/>
<path d="M2139 2683 c-1 -4 0 -12 1 -18 7 -29 7 -54 0 -52 -4 1 -8 -2 -9 -8
-1 -5 4 -10 9 -10 6 0 15 -7 20 -15 5 -8 10 -13 11 -10 0 3 2 13 4 22 2 10 -1
21 -6 24 -6 4 -6 11 1 19 14 16 4 38 -12 29 -6 -4 -8 -2 -4 4 3 6 2 13 -4 17
-5 3 -11 3 -11 -2z"/>
<path d="M2051 2576 c-18 -19 -19 -25 -8 -35 20 -16 42 10 24 29 -8 9 -9 11 0
6 13 -7 28 10 15 18 -5 3 -19 -5 -31 -18z"/>
<path d="M2199 2518 c0 -2 -2 -11 -4 -21 -3 -15 -1 -16 11 -6 7 6 11 15 8 20
-5 9 -13 12 -15 7z"/>
<path d="M2059 2501 c-5 -42 0 -63 12 -56 6 4 8 10 5 13 -3 3 -1 11 4 17 7 9
6 16 -5 25 -10 9 -15 9 -16 1z"/>
<path d="M2506 3872 c-3 -5 1 -9 9 -9 8 0 12 4 9 9 -3 4 -7 8 -9 8 -2 0 -6 -4
-9 -8z"/>
<path d="M3065 3871 c-3 -5 -2 -12 3 -15 5 -3 9 1 9 9 0 17 -3 19 -12 6z"/>
<path d="M3009 3858 c-6 -20 -6 -39 0 -42 4 -3 7 6 7 20 0 20 -4 32 -7 22z"/>
<path d="M2516 3838 c3 -5 10 -6 15 -3 13 9 11 12 -6 12 -8 0 -12 -4 -9 -9z"/>
<path d="M2979 3848 c-5 -18 -6 -38 -1 -34 7 8 12 36 6 36 -2 0 -4 -1 -5 -2z"/>
<path d="M2945 3831 c-3 -5 -2 -12 3 -15 5 -3 9 1 9 9 0 17 -3 19 -12 6z"/>
<path d="M2704 3806 c1 -14 4 -28 7 -31 3 -3 5 6 5 19 -1 14 -4 28 -7 31 -3 3
-5 -6 -5 -19z"/>
<path d="M2763 3823 c4 -3 1 -13 -6 -22 -10 -14 -10 -14 4 -4 9 7 20 9 25 5 4
-4 2 1 -5 11 -7 9 -16 17 -19 17 -3 0 -2 -3 1 -7z"/>
<path d="M2655 3801 c-3 -5 -2 -12 3 -15 5 -3 9 1 9 9 0 17 -3 19 -12 6z"/>
<path d="M2570 3787 c0 -2 6 -10 14 -16 11 -9 16 -9 22 1 4 7 4 10 -1 6 -4 -4
-14 -3 -22 3 -7 6 -13 9 -13 6z"/>
<path d="M2933 3775 c0 -8 4 -12 9 -9 5 3 6 10 3 15 -9 13 -12 11 -12 -6z"/>
<path d="M2623 3773 c4 -3 1 -13 -6 -22 -11 -14 -10 -14 5 -2 16 12 16 31 1
31 -4 0 -3 -3 0 -7z"/>
<path d="M2665 3761 c-3 -5 -2 -12 3 -15 5 -3 9 1 9 9 0 17 -3 19 -12 6z"/>
<path d="M2694 3756 c1 -8 5 -18 8 -22 4 -3 5 1 4 10 -1 8 -5 18 -8 22 -4 3
-5 -1 -4 -10z"/>
<path d="M2764 3735 c0 -13 3 -22 7 -19 8 4 6 30 -2 38 -3 3 -5 -5 -5 -19z"/>
<path d="M2636 3732 c-3 -5 1 -9 9 -9 8 0 12 4 9 9 -3 4 -7 8 -9 8 -2 0 -6 -4
-9 -8z"/>
<path d="M2779 3708 c-6 -20 -6 -39 0 -42 4 -3 7 6 7 20 0 20 -4 32 -7 22z"/>
<path d="M2700 3650 c-9 -6 -10 -10 -3 -10 6 0 15 5 18 10 8 12 4 12 -15 0z"/>
<path d="M4223 3303 c9 -2 23 -2 30 0 6 3 -1 5 -18 5 -16 0 -22 -2 -12 -5z"/>
<path d="M4403 3291 c-2 -18 -140 -829 -149 -873 l-6 -28 -294 0 -295 0 -54
-116 -55 -116 0 -310 0 -310 294 3 c162 2 297 7 300 10 6 6 247 1396 299 1728
1 7 -7 17 -18 21 -16 6 -21 4 -22 -9z m-470 -1158 c-7 -2 -19 -2 -25 0 -7 3
-2 5 12 5 14 0 19 -2 13 -5z m215 -27 c-1 -19 -5 -33 -9 -31 -3 3 -4 16 -2 29
5 25 5 25 -83 29 l-89 3 93 2 93 2 -3 -34z m-1 -61 c0 -8 -4 -12 -9 -9 -5 3
-6 10 -3 15 9 13 12 11 12 -6z"/>
<path d="M4570 3296 c-1 -1 -6 -80 -13 -176 -8 -112 -12 -420 -12 -860 l0
-685 220 3 c121 1 426 2 679 2 l458 0 -8 333 c-4 182 -8 430 -8 549 l-1 218
-101 0 -102 0 -68 120 -67 119 -51 -1 c-28 0 -235 1 -461 3 l-410 4 457 5 456
5 -100 178 -101 177 -291 1 c-160 1 -333 2 -383 3 -51 2 -93 2 -93 2z"/>
<path d="M6940 2985 l0 -305 -35 0 -35 0 1 -62 0 -63 80 -73 79 -74 258 7 259
8 0 253 1 254 -254 0 -253 0 -4 -137 -3 -138 -2 142 -2 143 259 2 258 3 -234
135 c-129 74 -264 152 -300 173 -35 20 -67 37 -69 37 -2 0 -4 -137 -4 -305z"/>
<path d="M6379 2213 c6 -10 68 -99 138 -198 l129 -180 132 -2 132 -2 0 136 0
135 -56 64 -56 64 -215 0 c-201 0 -213 -1 -204 -17z"/>
</g>
</svg>
